HIERARCHY
ROOT root
{
	OFFSET 0.000000 0.000000 0.000000
	CHANNELS 6 Xposition Yposition Zposition Zrotation Yrotation Xrotation
	JOINT lhip
	{
		OFFSET 0.058581 -0.082280 -0.017664
		CHANNELS 3 Zrotation Yrotation Xrotation
		JOINT lknee
		{
			OFFSET 0.043451 -0.386469 0.008037
			CHANNELS 3 Zrotation Yrotation Xrotation
			JOINT lankle
			{
				OFFSET -0.014790 -0.426874 -0.037428
				CHANNELS 3 Zrotation Yrotation Xrotation
				JOINT ltoe
				{
					OFFSET 0.041054 -0.060286 0.122042
					CHANNELS 3 Zrotation Yrotation Xrotation
					End Site
					{
						OFFSET 0.000000 0.000000 0.000000
					}
				}
			}
		}
	}
	JOINT rhip
	{
		OFFSET -0.060310 -0.090513 -0.013543
		CHANNELS 3 Zrotation Yrotation Xrotation
		JOINT rknee
		{
			OFFSET -0.043257 -0.383688 -0.004843
			CHANNELS 3 Zrotation Yrotation Xrotation
			JOINT rankle
			{
				OFFSET 0.019056 -0.420046 -0.034562
				CHANNELS 3 Zrotation Yrotation Xrotation
				JOINT rtoe
				{
					OFFSET -0.034840 -0.062106 0.130323
					CHANNELS 3 Zrotation Yrotation Xrotation
					End Site
					{
						OFFSET 0.000000 0.000000 0.000000
					}
				}
			}
		}
	}
	JOINT lowerback
	{
		OFFSET 0.004439 0.124404 -0.038385
		CHANNELS 3 Zrotation Yrotation Xrotation
		JOINT upperback
		{
			OFFSET 0.004488 0.137956 0.026820
			CHANNELS 3 Zrotation Yrotation Xrotation
			JOINT chest
			{
				OFFSET -0.002265 0.056032 0.002855
				CHANNELS 3 Zrotation Yrotation Xrotation
				JOINT lowerneck
				{
					OFFSET -0.013390 0.211636 -0.033468
					CHANNELS 3 Zrotation Yrotation Xrotation
					JOINT upperneck
					{
						OFFSET 0.010113 0.088937 0.050410
						CHANNELS 3 Zrotation Yrotation Xrotation
						End Site
						{
							OFFSET 0.000000 0.000000 0.000000
						}
					}
				}
				JOINT lclavicle
				{
					OFFSET 0.071702 0.114000 -0.018898
					CHANNELS 3 Zrotation Yrotation Xrotation
					JOINT lshoulder
					{
						OFFSET 0.122921 0.045205 -0.019046
						CHANNELS 3 Zrotation Yrotation Xrotation
						JOINT lelbow
						{
							OFFSET 0.255332 -0.015649 -0.022946
							CHANNELS 3 Zrotation Yrotation Xrotation
							JOINT lwrist
							{
								OFFSET 0.265709 0.012698 -0.007375
								CHANNELS 3 Zrotation Yrotation Xrotation
								End Site
								{
									OFFSET 0.000000 0.000000 0.000000
								}
							}
						}
					}
				}
				JOINT rclavicle
				{
					OFFSET -0.082954 0.112472 -0.023707
					CHANNELS 3 Zrotation Yrotation Xrotation
					JOINT rshoulder
					{
						OFFSET -0.113228 0.046853 -0.008472
						CHANNELS 3 Zrotation Yrotation Xrotation
						JOINT relbow
						{
							OFFSET -0.260127 -0.014369 -0.031269
							CHANNELS 3 Zrotation Yrotation Xrotation
							JOINT rwrist
							{
								OFFSET -0.269108 0.006794 -0.006027
								CHANNELS 3 Zrotation Yrotation Xrotation
								End Site
								{
									OFFSET 0.000000 0.000000 0.000000
								}
							}
						}
					}
				}
			}
		}
	}
}
MOTION
Frames: 17
Frame Time: 0.033333
-0.656389 0.876026 0.963661 95.248821 -1.899630 90.127458 10.025941 -1.315101 -6.240743 -9.733142 -9.577957 17.529096 1.976504 3.579625 -21.602086 0.000000 -0.000000 0.000000 -11.259343 -3.811642 -8.621558 3.951460 -0.117886 26.099711 3.829020 1.863708 -26.021327 0.000000 -0.000000 0.000000 -0.276257 3.221837 5.567498 5.431990 2.036124 0.039694 1.487504 1.027392 -3.991496 15.510083 16.658340 -14.997502 4.793445 0.938202 8.670983 -33.881286 9.730388 -2.080152 -43.460894 -3.693039 10.679286 158.817621 -61.307096 -127.677081 -0.818720 -12.849384 -6.754741 36.216167 -3.132344 1.415284 44.690012 -1.024000 13.184524 -81.241346 64.362869 -66.316963 -0.780189 10.000856 -21.035335 
-0.656157 0.875718 0.962694 95.490172 -1.862550 89.938001 10.103127 -1.403806 -6.170207 -9.765888 -9.581044 17.682964 1.894157 3.441565 -21.640221 0.000000 -0.000000 0.000000 -11.238538 -3.741630 -8.482609 4.026342 -0.222670 26.380676 3.719941 1.755812 -26.128737 0.000000 -0.000000 0.000000 -0.178456 3.126407 5.625298 5.301263 2.022333 0.215387 1.321892 1.017204 -4.020485 14.482873 16.710644 -15.796370 3.925554 0.799548 8.349346 -33.978253 9.730238 -2.006064 -43.565559 -3.566926 10.469889 158.835551 -61.525921 -127.563092 -1.181557 -12.781341 -6.542613 36.267399 -3.001087 1.409705 44.810248 -0.974249 13.171599 -81.597072 64.219874 -66.677910 -1.094757 10.026363 -21.015173 
-0.655865 0.874957 0.961962 95.636588 -1.826436 89.844742 10.245868 -1.557770 -6.160578 -9.846300 -9.490129 17.779982 1.954349 3.423810 -21.793697 0.000000 -0.000000 0.000000 -11.078442 -3.631094 -8.545598 3.988016 -0.140367 26.816129 3.565617 1.551204 -26.760837 0.000000 -0.000000 0.000000 -0.195486 3.006005 5.573219 5.164928 2.084783 0.296322 1.159325 1.006203 -4.005678 13.554036 16.539901 -16.494619 2.923182 0.547492 8.088463 -34.088357 9.816686 -1.999883 -43.541458 -3.187449 10.503825 158.706727 -61.447754 -127.458594 -1.079372 -12.478766 -6.663611 36.496660 -2.939131 1.420879 44.830691 -0.908108 13.271793 -81.771563 64.025485 -66.899406 -1.042171 9.659796 -20.783933 
-0.656890 0.873891 0.960976 95.326435 -2.015624 90.076386 10.088381 -1.394858 -6.489250 -9.851192 -9.358647 17.902286 2.055856 3.498479 -21.865187 0.000000 -0.000000 0.000000 -11.157183 -3.531185 -9.364643 3.909233 -0.058977 27.606657 3.571370 1.696584 -27.028302 0.000000 -0.000000 0.000000 -0.535461 3.058597 5.433650 4.943372 2.364352 0.241577 1.057091 1.127605 -4.010695 12.692359 16.516371 -17.494551 1.953614 0.239626 7.903889 -34.120121 9.996756 -2.136839 -43.489516 -3.135560 10.503275 158.998715 -61.672930 -127.737132 -0.785994 -12.334811 -6.219630 36.674191 -2.927028 1.631834 44.789007 -0.629337 13.289409 -81.300994 63.943009 -66.582361 -1.227920 9.601448 -20.699120 
-0.656821 0.873195 0.960484 95.458815 -2.017234 89.968684 10.110994 -1.391462 -6.429266 -9.783112 -9.379806 17.917864 1.931766 3.373595 -21.929307 0.000000 -0.000000 0.000000 -11.084609 -3.585224 -9.318945 3.906707 -0.042143 27.762395 3.408555 1.437300 -27.168945 0.000000 -0.000000 0.000000 -0.487372 2.956460 5.516685 4.714789 2.413225 0.334496 0.871924 1.102953 -4.157776 11.739413 16.213793 -18.218663 1.119393 -0.066075 7.570876 -34.218122 10.075367 -2.032357 -43.044521 -2.832047 10.165597 158.784656 -61.519769 -127.101524 -2.336660 -12.669106 -6.631134 36.877879 -2.864474 1.951813 44.814924 -0.500539 13.168347 -81.003539 63.850916 -66.290196 -0.779157 9.787652 -20.635772 
-0.656683 0.872273 0.960236 95.491281 -2.073818 90.040065 10.109950 -1.355562 -6.463783 -9.788003 -9.454171 17.841435 1.972946 3.422945 -21.910704 0.000000 -0.000000 0.000000 -11.064736 -3.635587 -9.478565 3.905912 -0.038138 27.934362 3.196886 1.304188 -27.133585 0.000000 -0.000000 0.000000 -0.509120 2.919079 5.433595 4.453207 2.489578 0.325846 0.693872 1.050666 -4.289714 10.837983 15.850813 -18.866780 0.460398 -0.178756 7.197787 -34.405208 10.078255 -2.014917 -42.664479 -2.558361 10.041867 158.754156 -61.513120 -127.209020 -2.245607 -12.442414 -6.575846 37.128253 -2.569866 1.886171 44.873560 -0.885694 13.321671 -81.122722 63.858029 -66.658722 -0.638917 9.653213 -20.406768 
-0.656753 0.871410 0.960001 95.459047 -2.132398 90.106585 10.143346 -1.555926 -6.482541 -9.790357 -9.287112 17.702613 1.836291 3.452294 -21.836601 0.000000 -0.000000 0.000000 -11.081148 -3.457547 -9.579680 3.892158 -0.162772 27.967406 3.288342 1.329171 -27.294253 0.000000 -0.000000 0.000000 -0.536518 2.986923 5.466258 4.313451 2.593183 0.330243 0.517386 0.940360 -4.444295 10.044130 15.569588 -19.230477 -0.505724 -0.379851 6.904298 -34.347765 10.286081 -2.011290 -42.747983 -2.633357 10.117072 158.514644 -61.689038 -127.028112 -1.727062 -12.810385 -6.325204 37.174238 -2.663587 1.621194 44.925539 -0.794668 13.678914 -80.519123 64.178928 -66.002163 -0.956705 9.875444 -20.450984 
-0.656502 0.870522 0.960043 95.664702 -2.125872 90.069821 10.212752 -1.455735 -6.324234 -9.740279 -9.497383 17.332902 1.832191 3.287663 -21.682670 0.000000 -0.000000 0.000000 -11.000756 -3.587381 -9.403874 3.859652 -0.166356 27.816042 3.088290 1.293262 -27.226362 0.000000 -0.000000 0.000000 -0.589313 2.853357 5.530289 4.193688 2.600914 0.340979 0.464403 0.905645 -4.561185 9.073852 15.230780 -19.994748 -1.245933 -0.724354 7.229690 -34.405810 10.243488 -1.852774 -42.835153 -2.521758 10.003744 158.372141 -61.546559 -126.813457 -2.000080 -12.962644 -6.490704 37.331776 -2.432355 1.855461 44.805652 -0.752958 13.630813 -80.423889 64.207941 -66.141282 -0.873610 10.354278 -20.472066 
-0.656272 0.869707 0.959999 95.702278 -2.179510 90.024851 10.157859 -1.261852 -6.221188 -9.624541 -9.601773 17.205631 1.673412 3.160205 -21.511368 0.000000 -0.000000 0.000000 -10.992509 -3.664005 -9.330134 3.810119 -0.186955 27.807404 3.059515 1.401299 -27.174157 0.000000 -0.000000 0.000000 -0.662374 2.855172 5.452256 4.054771 2.632936 0.513815 0.379399 0.879168 -4.587867 8.417700 14.993501 -20.524178 -1.814133 -0.980795 7.189442 -34.371389 10.153725 -1.769855 -42.894532 -2.517019 9.948704 158.421240 -61.565911 -126.862793 -1.991462 -12.964817 -6.639057 37.414083 -2.260033 1.926873 44.939320 -0.690902 13.616532 -80.469373 64.118975 -66.193614 -0.621956 10.246222 -20.229362 
-0.655737 0.869354 0.960164 95.908455 -2.158950 90.026084 10.174982 -1.418062 -6.134946 -9.509712 -9.751919 16.961119 1.705837 3.200265 -21.420733 0.000000 -0.000000 0.000000 -10.977532 -3.748017 -9.147399 3.905149 -0.202855 27.620900 3.075945 1.292219 -27.242048 0.000000 -0.000000 0.000000 -0.602372 2.817498 5.262389 4.002127 2.531106 0.691833 0.224863 0.821396 -4.603714 7.846766 14.835060 -21.049079 -2.255621 -1.376954 7.627121 -34.463359 10.136778 -1.792984 -42.824455 -2.626215 9.948350 158.458610 -61.736147 -126.827627 -2.238318 -12.805579 -6.427039 37.648560 -2.176082 1.937559 44.888519 -0.512003 13.666925 -80.264237 63.964828 -66.000417 -0.783023 10.130207 -20.181103 
-0.656055 0.868512 0.960343 95.742154 -2.178640 90.164847 10.225232 -1.229340 -6.210815 -9.465758 -9.512717 16.834491 1.562329 2.997526 -21.266426 0.000000 -0.000000 0.000000 -10.878637 -3.558885 -9.341298 3.786210 -0.249462 27.589972 3.085093 1.350304 -27.394118 0.000000 -0.000000 0.000000 -0.667612 2.831487 5.205151 3.891055 2.676756 0.640106 0.142538 0.802505 -4.739713 7.451904 14.792141 -21.183248 -2.587680 -1.537298 8.086273 -34.579269 9.989763 -1.679111 -42.709547 -2.608322 9.919310 158.077292 -61.615290 -126.473671 -2.543713 -12.798564 -6.107399 37.889284 -2.078992 2.068609 44.997042 -0.392267 13.665675 -80.257367 63.738234 -66.167648 -0.796042 10.467521 -19.925056 
-0.655813 0.868364 0.960506 95.856864 -2.165275 90.244207 10.207029 -1.188454 -6.219415 -9.381677 -9.680827 16.682655 1.626741 3.011585 -21.302810 0.000000 -0.000000 0.000000 -10.867193 -3.541516 -9.370121 3.799218 -0.374199 27.563644 2.981565 1.184666 -27.236992 0.000000 -0.000000 0.000000 -0.635011 2.754027 5.070721 3.842624 2.686382 0.617209 0.072709 0.746504 -4.767764 7.177360 14.586489 -21.176588 -2.986557 -1.558767 8.343300 -34.729538 9.964091 -1.571211 -42.609745 -2.664866 9.848837 157.981877 -61.488450 -126.124327 -2.855681 -12.841940 -6.086403 38.064674 -1.931734 2.133906 44.886884 -0.440566 13.664380 -80.463311 63.651516 -66.336624 -0.594915 10.497422 -20.039860 
-0.655014 0.868080 0.960541 95.863312 -2.211012 90.257222 10.223220 -1.177947 -6.088614 -9.427489 -9.784394 16.448830 1.575466 3.001127 -21.110429 0.000000 -0.000000 0.000000 -10.902579 -3.525286 -9.245396 3.842428 -0.308336 27.414261 3.017723 1.218966 -27.315101 0.000000 -0.000000 0.000000 -0.711018 2.715803 5.047349 3.797920 2.744432 0.562527 0.052803 0.700953 -4.874287 6.866929 14.548323 -21.087974 -3.204573 -1.654853 8.936662 -34.807740 9.959960 -1.489482 -42.522013 -2.695122 9.763386 157.954110 -61.485095 -125.964816 -3.041631 -12.825872 -5.977129 38.136121 -1.805133 2.268113 44.869400 -0.485604 13.605014 -80.175481 63.597404 -66.077934 -0.675372 10.561716 -20.194399 
-0.654397 0.868028 0.960564 96.014820 -2.229347 90.182191 10.202442 -1.039321 -6.018471 -9.412427 -9.777561 16.478173 1.415345 2.779760 -21.142806 0.000000 -0.000000 0.000000 -10.916950 -3.607226 -9.040368 3.845062 -0.319483 27.334435 3.062251 1.163100 -27.354465 0.000000 -0.000000 0.000000 -0.586766 2.673297 5.002591 3.788364 2.698280 0.689389 -0.084111 0.626258 -4.902553 6.436187 14.435080 -21.019188 -3.558137 -1.775513 9.329486 -34.902808 9.873198 -1.408774 -42.329315 -2.803430 9.749637 157.717423 -61.394843 -125.515079 -3.388710 -12.825598 -6.090980 38.447381 -1.768909 2.181520 44.629007 -0.411586 13.651762 -80.188839 63.583167 -65.998705 -0.532045 10.552025 -20.156130 
-0.654254 0.868041 0.960362 96.006779 -2.344060 90.263350 10.093850 -1.009812 -6.183860 -9.480824 -9.827380 16.633522 1.495260 2.841327 -21.082100 0.000000 -0.000000 0.000000 -11.036819 -3.573789 -9.201838 3.837849 -0.371174 27.430830 3.031299 1.096242 -27.292307 0.000000 -0.000000 0.000000 -0.609075 2.722300 4.963276 3.751985 2.777888 0.569908 -0.179475 0.483199 -4.911197 6.108246 14.132115 -20.971178 -3.925076 -2.071212 10.085869 -34.861188 9.908314 -1.267172 -42.266159 -2.929052 9.700436 157.622334 -61.344320 -125.256954 -3.681025 -12.647628 -6.179405 38.611339 -1.840169 2.185429 44.565720 -0.218860 13.693645 -79.947444 63.590714 -65.750880 -0.210563 10.460545 -20.367870 
-0.653024 0.868285 0.960459 96.232529 -2.309784 90.073704 10.139595 -1.029101 -5.891453 -9.497706 -9.979958 16.504593 1.479016 2.808700 -21.050836 0.000000 -0.000000 0.000000 -11.028357 -3.691669 -8.726823 3.856935 -0.309637 27.204225 3.002397 1.027959 -27.320210 0.000000 -0.000000 0.000000 -0.442801 2.656860 5.003390 3.740745 2.696866 0.683372 -0.247175 0.499374 -4.956419 5.756492 14.041426 -20.678468 -3.916397 -2.147208 10.211898 -34.998826 9.744077 -1.198298 -42.128099 -2.917802 9.641613 157.522866 -61.185483 -125.155350 -3.914165 -12.442824 -5.781844 38.791311 -1.725034 2.188898 44.360398 -0.378371 13.545262 -80.041641 63.594235 -65.877579 0.011931 10.404288 -20.277013 
-0.652580 0.868216 0.960270 96.008883 -2.351777 90.114731 10.114254 -1.037478 -5.803435 -9.506913 -9.838352 16.418471 1.510997 2.967882 -21.057088 0.000000 -0.000000 0.000000 -11.031213 -3.734507 -8.905059 3.795651 -0.217205 27.372402 3.015927 1.047863 -27.106796 0.000000 -0.000000 0.000000 -0.467438 2.781839 4.987524 3.711469 2.806372 0.520352 -0.228861 0.560374 -4.868309 5.576936 13.830766 -20.502104 -4.009507 -2.228998 10.646816 -34.929870 9.767748 -1.275951 -42.459826 -3.128002 9.892163 157.502032 -61.424831 -125.759482 -2.566669 -12.497334 -5.815729 38.731641 -1.734263 2.229652 44.416492 -0.505131 13.663192 -80.043873 63.592608 -66.133220 -0.644570 10.229394 -19.978319 
